<?xml version="1.0" encoding="UTF-8"?>
<svg id="Capa_2" data-name="Capa 2" xmlns="http://www.w3.org/2000/svg" viewBox="0 0 245.05 313.45">
  <defs>
    <style>
      .cls-1 {
        fill: #fffdfd;
      }
    </style>
  </defs>
  <g id="Capa_1-2" data-name="Capa 1">
    <path class="cls-1" d="m60.17,242.55c4.13,14.43,11.4,27.47,20.99,38.26v.07c17.21,19.41,41.97,31.59,69.49,31.59,52.13,0,94.39-43.68,94.39-97.56s-42.26-97.56-94.39-97.56c-26.84,0-51.05,11.59-69.49,30.17V0h-24.84v189.99L0,313.45h27.83l28.49-62.45v.36h0s3.87-8.48,3.87-8.48c-.03-.12-.07-.24-.1-.36l.08.03Zm90.7,43.67c-38.24,0-69.24-32.07-69.24-71.62s31-71.62,69.24-71.62,69.24,32.07,69.24,71.62-31,71.62-69.24,71.62Z"/>
  </g>
</svg>