<?xml version="1.0" encoding="UTF-8"?>
<svg id="Capa_2" data-name="Capa 2" xmlns="http://www.w3.org/2000/svg" viewBox="0 0 1336.5 313.45">
  <defs>
    <style>
      .cls-1 {
        fill: #fffdfd;
      }

      .cls-2 {
        fill: #00a8e6;
      }
    </style>
  </defs>
  <g id="Capa_1-2" data-name="Capa 1">
    <path class="cls-2" d="m60.17,242.55c4.13,14.43,11.4,27.47,20.99,38.26v.07c17.21,19.41,41.97,31.59,69.49,31.59,52.13,0,94.39-43.68,94.39-97.56s-42.26-97.56-94.39-97.56c-26.84,0-51.05,11.59-69.49,30.17V0h-24.84v189.99L0,313.45h27.83l28.49-62.45v.36h0s3.87-8.48,3.87-8.48c-.03-.12-.07-.24-.1-.36l.08.03Zm90.7,43.67c-38.24,0-69.24-32.07-69.24-71.62s31-71.62,69.24-71.62,69.24,32.07,69.24,71.62-31,71.62-69.24,71.62Z"/>
    <g>
      <path class="cls-1" d="m282.69,128.73h27.18l1.06,23.3c14.47-18.71,29.3-26.83,50.13-26.83,3.53,0,6.35.35,13.06,1.06l-4.94,25.42c-6-1.41-9.53-2.12-14.12-2.12-15.18,0-28.6,8.47-35.3,22.24-5.3,10.24-7.41,24.36-7.41,47.31v77.32h-29.66v-167.7Z"/>
      <path class="cls-1" d="m417.55,220.17c.71,36.01,23.3,56.84,62.14,56.84,20.83,0,39.54-4.59,55.43-13.42l9.18,21.54c-20.48,10.59-40.95,15.18-64.96,15.18-57.55,0-91.09-32.13-91.09-87.55s31.77-87.55,83.32-87.55,80.85,31.42,80.85,83.32v11.65h-134.86Zm105.91-22.6c-2.12-32.13-19.77-49.07-51.19-49.07s-51.54,17.65-54.02,49.07h105.21Z"/>
      <path class="cls-1" d="m725.4,270.3c-13.42,20.12-33.54,30.01-60.37,30.01-48.72,0-79.43-34.25-79.43-87.91s30.71-87.55,79.43-87.55c27.18,0,46.6,9.18,60.02,28.6l.35-24.71h27.89v167.7h-25.77l-2.12-26.12Zm-109.09-57.55c0,39.54,20.48,64.25,53.31,64.25s54.02-25.07,54.02-63.55-20.83-65.31-54.02-65.31-53.31,25.07-53.31,64.61Z"/>
      <path class="cls-1" d="m788.24,152.74v-24.01h26.48l1.77-50.84,26.83-4.94v55.78h47.66v24.01h-47.66v81.55c0,31.42,6,39.89,28.24,39.89,5.65,0,9.18-.71,15.89-2.83l5.3,24.01c-10.59,2.47-18,3.53-28.6,3.53-21.89,0-35.3-5.65-42.72-18.36-5.65-9.89-7.41-20.83-7.41-48.37v-79.43h-25.77Z"/>
      <path class="cls-1" d="m959.81,75.77c0,11.65-7.77,19.06-19.77,19.06s-19.77-7.41-19.77-19.42c0-11.3,7.77-18.71,19.77-18.71s19.77,7.41,19.77,19.06Zm-34.6,52.96h29.66v167.7h-29.66v-167.7Z"/>
      <path class="cls-1" d="m985.58,128.73h31.42l48.01,130.63,48.01-130.63h31.42l-69.2,169.11h-20.48l-69.2-169.11Z"/>
      <path class="cls-1" d="m1336.5,212.75c0,52.96-34.95,87.55-88.26,87.55s-88.61-34.25-88.61-88.61,35.66-86.5,88.61-86.5,88.26,34.6,88.26,87.55Zm-146.16-1.06c0,40.6,22.24,65.31,58.25,65.31s57.19-25.07,57.19-64.25-22.59-64.25-57.55-64.25-57.9,25.07-57.9,63.19Z"/>
    </g>
  </g>
</svg>